<svg width="270" height="269" viewBox="0 0 270 269" fill="none" xmlns="http://www.w3.org/2000/svg">
<g opacity="0.75">
<path fill-rule="evenodd" clip-rule="evenodd" d="M90.5532 0.989349V89.2447H1.43616V90.2447H90.5532V178.862H1.43616V179.862H90.5532V268.117H91.5532V179.862H180.17V268.117H181.17V179.862H268.564V178.862H181.17V90.2447H268.564V89.2447H181.17V0.989349H180.17V89.2447H91.5532V0.989349H90.5532ZM180.17 178.862V90.2447H91.5532V178.862H180.17Z" fill="#C1C1C1"/>
<path d="M90.5532 89.2447V89.7447H91.0532V89.2447H90.5532ZM90.5532 0.989349V0.489349H90.0532V0.989349H90.5532ZM1.43616 89.2447V88.7447H0.936157V89.2447H1.43616ZM1.43616 90.2447H0.936157V90.7447H1.43616V90.2447ZM90.5532 90.2447H91.0532V89.7447H90.5532V90.2447ZM90.5532 178.862V179.362H91.0532V178.862H90.5532ZM1.43616 178.862V178.362H0.936157V178.862H1.43616ZM1.43616 179.862H0.936157V180.362H1.43616V179.862ZM90.5532 179.862H91.0532V179.362H90.5532V179.862ZM90.5532 268.117H90.0532V268.617H90.5532V268.117ZM91.5532 268.117V268.617H92.0532V268.117H91.5532ZM91.5532 179.862V179.362H91.0532V179.862H91.5532ZM180.17 179.862H180.67V179.362H180.17V179.862ZM180.17 268.117H179.67V268.617H180.17V268.117ZM181.17 268.117V268.617H181.67V268.117H181.17ZM181.17 179.862V179.362H180.67V179.862H181.17ZM268.564 179.862V180.362H269.064V179.862H268.564ZM268.564 178.862H269.064V178.362H268.564V178.862ZM181.17 178.862H180.67V179.362H181.17V178.862ZM181.17 90.2447V89.7447H180.67V90.2447H181.17ZM268.564 90.2447V90.7447H269.064V90.2447H268.564ZM268.564 89.2447H269.064V88.7447H268.564V89.2447ZM181.17 89.2447H180.67V89.7447H181.17V89.2447ZM181.17 0.989349H181.67V0.489349H181.17V0.989349ZM180.17 0.989349V0.489349H179.67V0.989349H180.17ZM180.17 89.2447V89.7447H180.67V89.2447H180.17ZM91.5532 89.2447H91.0532V89.7447H91.5532V89.2447ZM91.5532 0.989349H92.0532V0.489349H91.5532V0.989349ZM180.17 178.862V179.362H180.67V178.862H180.17ZM180.17 90.2447H180.67V89.7447H180.17V90.2447ZM91.5532 90.2447V89.7447H91.0532V90.2447H91.5532ZM91.5532 178.862H91.0532V179.362H91.5532V178.862ZM91.0532 89.2447V0.989349H90.0532V89.2447H91.0532ZM1.43616 89.7447H90.5532V88.7447H1.43616V89.7447ZM1.93616 90.2447V89.2447H0.936157V90.2447H1.93616ZM90.5532 89.7447H1.43616V90.7447H90.5532V89.7447ZM91.0532 178.862V90.2447H90.0532V178.862H91.0532ZM1.43616 179.362H90.5532V178.362H1.43616V179.362ZM1.93616 179.862V178.862H0.936157V179.862H1.93616ZM90.5532 179.362H1.43616V180.362H90.5532V179.362ZM91.0532 268.117V179.862H90.0532V268.117H91.0532ZM91.5532 267.617H90.5532V268.617H91.5532V267.617ZM91.0532 179.862V268.117H92.0532V179.862H91.0532ZM180.17 179.362H91.5532V180.362H180.17V179.362ZM180.67 268.117V179.862H179.67V268.117H180.67ZM181.17 267.617H180.17V268.617H181.17V267.617ZM180.67 179.862V268.117H181.67V179.862H180.67ZM268.564 179.362H181.17V180.362H268.564V179.362ZM268.064 178.862V179.862H269.064V178.862H268.064ZM181.17 179.362H268.564V178.362H181.17V179.362ZM180.67 90.2447V178.862H181.67V90.2447H180.67ZM268.564 89.7447H181.17V90.7447H268.564V89.7447ZM268.064 89.2447V90.2447H269.064V89.2447H268.064ZM181.17 89.7447H268.564V88.7447H181.17V89.7447ZM180.67 0.989349V89.2447H181.67V0.989349H180.67ZM180.17 1.48935H181.17V0.489349H180.17V1.48935ZM180.67 89.2447V0.989349H179.67V89.2447H180.67ZM91.5532 89.7447H180.17V88.7447H91.5532V89.7447ZM91.0532 0.989349V89.2447H92.0532V0.989349H91.0532ZM90.5532 1.48935H91.5532V0.489349H90.5532V1.48935ZM180.67 178.862V90.2447H179.67V178.862H180.67ZM180.17 89.7447H91.5532V90.7447H180.17V89.7447ZM91.0532 90.2447V178.862H92.0532V90.2447H91.0532ZM91.5532 179.362H180.17V178.362H91.5532V179.362Z" fill="#C1C1C1"/>
</g>
</svg>
